<?xml version="1.0" standalone="no"?>
<!DOCTYPE svg PUBLIC "-//W3C//DTD SVG 20010904//EN"
 "http://www.w3.org/TR/2001/REC-SVG-20010904/DTD/svg10.dtd">
<svg version="1.0" xmlns="http://www.w3.org/2000/svg"
 width="512.000000pt" height="512.000000pt" viewBox="0 0 512.000000 512.000000"
 preserveAspectRatio="xMidYMid meet">
<metadata>
Created by potrace 1.11, written by Peter Selinger 2001-2013
</metadata>
<g transform="translate(0.000000,512.000000) scale(0.100000,-0.100000)"
fill="#000000" stroke="none">
<path d="M2278 4059 c-27 -15 -36 -38 -48 -129 -6 -47 -31 -157 -56 -245 -39
-141 -72 -314 -88 -470 -2 -27 -8 -80 -11 -116 l-7 -66 -126 -41 c-180 -58
-262 -78 -392 -97 -62 -9 -111 -32 -207 -98 -45 -30 -112 -65 -150 -77 -103
-34 -118 -53 -88 -110 11 -22 26 -32 58 -40 73 -18 119 -47 223 -143 159 -148
173 -156 454 -262 91 -35 165 -67 165 -72 0 -4 -7 -48 -15 -98 -9 -52 -15
-160 -15 -255 l0 -165 48 -143 c49 -149 55 -194 38 -297 -10 -57 0 -85 30 -85
35 0 72 29 124 96 59 77 132 130 258 189 111 52 116 56 234 205 90 113 167
206 173 208 5 2 29 -6 54 -17 25 -12 47 -21 50 -21 3 0 31 -12 62 -26 31 -14
113 -46 183 -71 l126 -46 195 -7 c185 -7 198 -8 249 -34 70 -36 105 -32 109
11 2 24 -12 59 -57 140 -74 133 -95 189 -121 323 -26 136 -91 264 -216 429
l-34 44 37 46 c21 25 48 57 60 71 145 166 208 260 238 360 29 96 113 265 145
290 3 3 21 27 39 53 34 49 37 89 8 100 -8 3 -58 -6 -113 -20 -95 -24 -103 -24
-221 -12 -148 14 -186 10 -472 -47 -123 -24 -225 -43 -226 -42 -1 2 -44 71
-95 153 -52 83 -117 180 -145 217 -78 102 -399 428 -421 428 -11 0 -27 -5 -36
-11z m159 -251 c20 -21 32 -38 26 -38 -6 0 -13 6 -15 12 -3 9 -9 8 -21 -4 -16
-16 -15 -16 20 -13 34 3 44 -3 101 -56 l64 -58 -29 -25 c-28 -25 -28 -25 -5
-26 13 0 21 4 18 9 -8 13 23 36 33 25 80 -88 84 -96 70 -106 -11 -8 -11 -9 3
-5 10 4 22 -3 32 -16 8 -12 36 -50 61 -85 25 -34 45 -65 45 -68 0 -3 10 -20
22 -37 12 -17 21 -42 20 -56 -1 -19 1 -22 7 -12 7 11 12 8 25 -15 30 -56 26
-55 111 -34 94 23 98 24 89 9 -4 -7 6 -5 22 4 80 42 302 69 546 65 l188 -3
-30 -63 c-17 -35 -30 -70 -30 -78 0 -8 -4 -14 -10 -14 -5 0 -10 6 -10 12 0 7
-7 2 -16 -10 -10 -14 -14 -32 -10 -48 6 -23 1 -38 -49 -133 -17 -32 -19 -33
-27 -15 -7 17 -8 16 -4 -4 5 -28 -58 -158 -85 -175 -10 -6 -19 -16 -19 -20 0
-14 -122 -159 -128 -152 -4 3 0 10 8 16 13 8 13 10 0 18 -8 6 -11 13 -7 18 5
4 12 1 16 -6 6 -8 11 -9 15 -3 8 14 -11 25 -29 18 -9 -3 -13 -17 -10 -44 3
-34 -1 -44 -30 -72 l-34 -33 26 -34 c22 -29 24 -36 12 -44 -11 -8 -9 -9 6 -5
16 5 26 -4 48 -38 15 -24 27 -46 27 -51 0 -4 13 -24 29 -44 21 -26 26 -41 20
-56 -12 -32 -9 -42 5 -16 l13 24 8 -29 c5 -16 7 -33 6 -38 -1 -5 3 -12 8 -15
20 -12 100 -262 95 -295 -3 -23 -2 -26 4 -11 8 18 9 17 16 -8 3 -16 4 -33 0
-39 -5 -7 -2 -8 6 -3 10 6 12 3 8 -13 -4 -14 -2 -20 4 -16 6 4 8 -2 4 -15 -3
-11 -8 -30 -11 -40 -3 -11 -22 -26 -43 -35 l-37 -15 50 -2 c28 -1 41 -4 30 -6
-33 -9 -313 19 -290 28 13 6 3 7 -25 3 -27 -3 -57 0 -75 7 -16 7 -34 13 -40
14 -5 0 -43 11 -82 23 -76 23 -97 39 -40 28 17 -3 38 -2 46 3 9 6 -9 8 -50 7
-46 -2 -74 2 -101 16 -21 10 -42 18 -48 18 -17 0 -124 52 -132 64 -4 7 -18 4
-40 -7 -25 -13 -27 -16 -8 -11 25 7 25 7 6 -15 -15 -16 -22 -19 -28 -9 -6 8
-7 5 -3 -9 5 -19 2 -23 -15 -23 -15 0 -20 -5 -17 -14 5 -13 -108 -166 -116
-156 -2 3 -10 0 -18 -6 -8 -6 -29 -11 -47 -9 -31 2 -31 1 -15 -17 9 -10 13
-21 9 -25 -4 -4 -11 -1 -16 7 -6 8 -10 11 -10 5 0 -5 5 -17 10 -25 8 -13 11
-12 24 5 8 11 10 21 5 23 -19 7 -8 20 16 18 14 0 25 -4 25 -7 0 -13 -109 -106
-181 -154 -41 -28 -76 -53 -77 -58 -7 -15 -67 -41 -100 -43 -27 -2 -31 0 -23
10 9 10 8 15 -3 19 -11 4 -13 -4 -11 -36 2 -39 -1 -43 -32 -59 -19 -10 -38
-18 -43 -18 -17 0 -11 18 8 23 14 4 13 5 -4 6 -18 1 -24 14 -43 101 -12 55
-19 109 -16 121 4 12 1 27 -8 37 -17 20 -38 131 -30 161 3 12 1 21 -6 21 -24
0 -5 325 24 417 6 19 1 25 -36 42 -24 11 -73 30 -109 42 -36 13 -76 30 -90 38
-13 9 -27 15 -30 15 -3 -1 -15 2 -28 7 -13 5 -26 9 -30 9 -4 0 -16 8 -27 16
-19 15 -19 15 10 9 28 -5 28 -5 6 5 -14 6 -31 8 -39 5 -19 -7 -127 66 -111 75
7 5 5 9 -6 13 -9 4 -13 3 -10 -3 12 -20 -9 -9 -69 35 -83 61 -120 95 -111 103
4 4 10 1 12 -5 3 -7 11 -13 18 -13 8 0 20 -8 27 -17 7 -10 22 -26 33 -35 18
-15 22 -15 40 -2 19 15 19 15 -8 8 -27 -6 -28 -5 -22 22 5 22 4 26 -4 14 -8
-11 -13 -12 -19 -3 -4 6 -20 17 -35 22 -16 6 -26 14 -24 18 3 5 -5 8 -18 8
-13 0 -21 -4 -18 -9 3 -5 2 -7 -3 -5 -15 6 -103 74 -103 79 -1 3 33 29 75 58
56 39 82 51 97 47 14 -4 18 -3 9 3 -23 16 149 91 248 107 25 4 53 12 63 17 10
5 32 10 48 10 16 1 32 5 35 10 7 11 24 10 24 -2 0 -5 -10 -14 -21 -21 -17 -9
-24 -8 -31 2 -8 11 -9 10 -4 -4 4 -14 1 -16 -17 -12 -12 3 -35 1 -52 -5 -26
-8 -24 -9 15 -4 53 7 50 -2 -6 -15 -38 -9 -38 -9 21 -9 33 0 54 2 47 5 -17 7
-5 23 17 23 21 0 55 35 47 48 -6 10 187 84 224 86 23 1 26 5 23 36 -1 19 2 69
7 110 6 41 12 91 14 110 2 19 6 51 9 71 3 20 8 61 12 90 12 91 24 91 25 2 0
-45 4 -84 8 -87 9 -5 6 142 -4 187 -4 22 -3 28 6 22 8 -5 10 -2 6 11 -3 11 1
32 9 48 8 15 13 32 10 36 -3 5 6 39 19 77 13 37 30 91 38 118 13 44 18 50 39
48 22 -3 23 -2 7 11 -10 7 -18 16 -18 20 0 13 60 -28 97 -66z m1344 -731 c-8
-8 -11 -5 -11 9 0 27 14 41 18 19 2 -9 -1 -22 -7 -28z m-32 -1392 c0 -5 -4 -3
-9 5 -5 8 -9 22 -9 30 0 16 17 -16 18 -35z m-9 -23 c-25 -4 -35 2 -26 17 5 7
13 7 27 -2 20 -12 20 -12 -1 -15z m20 -22 c0 -5 -2 -10 -4 -10 -3 0 -8 5 -11
10 -3 6 -1 10 4 10 6 0 11 -4 11 -10z m-1474 -335 c-23 -17 -36 -19 -36 -6 0
5 8 12 18 14 32 9 37 6 18 -8z"/>
<path d="M2400 3789 c0 -5 5 -7 10 -4 6 3 10 8 10 11 0 2 -4 4 -10 4 -5 0 -10
-5 -10 -11z"/>
<path d="M2310 3753 c0 -30 -17 -83 -39 -122 -10 -18 -10 -25 -1 -31 7 -4 9
-16 5 -29 -9 -31 4 -26 17 7 l11 27 7 -30 c3 -16 6 23 7 88 0 64 -1 117 -3
117 -2 0 -4 -12 -4 -27z m-5 -122 c-7 -32 -25 -43 -25 -16 0 8 5 15 10 15 6 0
10 10 10 22 0 12 3 19 6 15 3 -3 3 -19 -1 -36z"/>
<path d="M2510 3705 c7 -9 15 -13 17 -11 7 7 -7 26 -19 26 -6 0 -6 -6 2 -15z"/>
<path d="M2480 3697 c0 -10 8 -17 18 -17 9 0 13 4 7 8 -5 4 -13 11 -17 16 -5
5 -8 2 -8 -7z"/>
<path d="M2564 3654 c-2 -20 0 -21 12 -9 17 17 17 22 2 28 -8 3 -14 -5 -14
-19z"/>
<path d="M2641 3554 c0 -11 3 -14 6 -6 3 7 2 16 -1 19 -3 4 -6 -2 -5 -13z"/>
<path d="M2671 3544 c0 -11 3 -14 6 -6 3 7 2 16 -1 19 -3 4 -6 -2 -5 -13z"/>
<path d="M2720 3481 c0 -6 4 -13 10 -16 6 -3 7 1 4 9 -7 18 -14 21 -14 7z"/>
<path d="M2744 3434 c3 -9 6 -22 6 -31 0 -9 6 -13 14 -10 22 9 49 -28 41 -55
-7 -22 -7 -22 8 -3 17 22 7 44 -32 71 -12 9 -21 22 -21 30 0 8 -5 14 -11 14
-6 0 -8 -7 -5 -16z"/>
<path d="M2721 3398 c0 -21 3 -38 8 -38 15 0 25 21 13 29 -5 3 -12 15 -15 26
-3 12 -5 4 -6 -17z"/>
<path d="M2482 3300 c0 -14 2 -19 5 -12 2 6 2 18 0 25 -3 6 -5 1 -5 -13z"/>
<path d="M2529 3300 c-3 -41 3 -94 11 -109 4 -7 6 11 4 40 -2 42 -1 48 5 24 8
-28 8 -27 6 9 -4 46 -24 73 -26 36z"/>
<path d="M2207 3270 c3 -25 7 -47 9 -49 8 -9 2 55 -6 74 -6 13 -7 5 -3 -25z"/>
<path d="M2233 3225 c0 -33 2 -45 4 -27 2 18 2 45 0 60 -2 15 -4 0 -4 -33z"/>
<path d="M2483 3220 c1 -52 1 -53 10 -22 7 21 6 40 -1 55 -8 18 -10 13 -9 -33z"/>
<path d="M3372 3252 c-40 -12 -29 -27 21 -30 26 -2 47 1 47 7 0 5 -18 7 -42 4
-52 -7 -47 3 8 16 25 6 30 9 14 9 -14 0 -35 -3 -48 -6z"/>
<path d="M3258 3233 c-16 -2 -28 -9 -28 -15 0 -6 -11 -8 -27 -4 -20 5 -24 4
-13 -3 8 -6 50 -10 94 -9 49 0 74 3 65 9 -8 5 -27 9 -44 10 -26 0 -27 2 -10 9
21 9 9 10 -37 3z m19 -19 c-3 -3 -12 -4 -19 -1 -8 3 -5 6 6 6 11 1 17 -2 13
-5z"/>
<path d="M2890 3201 c0 -12 5 -21 10 -21 6 0 10 6 10 14 0 8 -4 18 -10 21 -5
3 -10 -3 -10 -14z"/>
<path d="M2188 3185 c6 -35 24 -44 20 -9 -2 15 -8 29 -14 31 -7 2 -10 -6 -6
-22z"/>
<path d="M3801 3184 c0 -11 3 -14 6 -6 3 7 2 16 -1 19 -3 4 -6 -2 -5 -13z"/>
<path d="M3018 3183 c7 -3 16 -2 19 1 4 3 -2 6 -13 5 -11 0 -14 -3 -6 -6z"/>
<path d="M2509 3148 c-1 -32 -1 -32 -10 -8 -7 19 -7 17 -2 -10 4 -19 6 -62 5
-95 -1 -33 2 -73 7 -90 7 -24 9 -25 10 -8 1 12 5 23 11 25 5 2 6 14 3 28 l-7
25 -7 -30 c-4 -16 -5 21 -3 83 3 61 2 112 -1 112 -3 0 -5 -15 -6 -32z"/>
<path d="M2552 3145 c0 -16 2 -22 5 -12 2 9 2 23 0 30 -3 6 -5 -1 -5 -18z"/>
<path d="M2902 3150 c-20 -19 -27 -30 -19 -30 2 0 17 11 33 25 16 14 24 25 18
25 -5 0 -20 -9 -32 -20z"/>
<path d="M2968 3163 c6 -2 18 -2 25 0 6 3 1 5 -13 5 -14 0 -19 -2 -12 -5z"/>
<path d="M3762 3150 c0 -14 2 -19 5 -12 2 6 2 18 0 25 -3 6 -5 1 -5 -13z"/>
<path d="M2985 3141 l-30 -7 27 -7 c28 -8 58 0 58 14 0 10 -10 10 -55 0z"/>
<path d="M2928 3123 c7 -3 16 -2 19 1 4 3 -2 6 -13 5 -11 0 -14 -3 -6 -6z"/>
<path d="M2590 3109 c0 -6 -7 -8 -16 -5 -13 5 -14 2 -8 -11 4 -10 7 -31 7 -46
0 -20 3 -24 8 -15 5 7 9 25 9 41 0 15 5 27 10 27 6 0 10 5 10 10 0 6 -4 10
-10 10 -5 0 -10 -5 -10 -11z"/>
<path d="M2620 3045 c-8 -142 -7 -171 4 -199 l13 -31 -1 42 c0 23 -4 36 -8 30
-5 -7 -8 -2 -8 13 0 14 4 32 10 40 6 9 5 17 -3 22 -9 5 -9 14 0 38 7 18 8 41
3 58 -8 25 -8 25 -10 -13z"/>
<path d="M2483 3030 c0 -25 2 -35 4 -22 2 12 2 32 0 45 -2 12 -4 2 -4 -23z"/>
<path d="M2601 3024 c0 -11 3 -14 6 -6 3 7 2 16 -1 19 -3 4 -6 -2 -5 -13z"/>
<path d="M3680 3023 c0 -12 7 -29 17 -38 14 -14 14 -18 2 -26 -9 -5 -10 -9 -2
-9 22 0 23 17 3 56 -15 29 -20 33 -20 17z"/>
<path d="M3713 3016 c7 -14 13 -23 15 -21 7 6 -9 45 -18 45 -4 0 -3 -11 3 -24z"/>
<path d="M2592 2970 c0 -19 2 -27 5 -17 2 9 2 25 0 35 -3 9 -5 1 -5 -18z"/>
<path d="M2482 2935 c0 -16 2 -22 5 -12 2 9 2 23 0 30 -3 6 -5 -1 -5 -18z"/>
<path d="M3240 2948 c-21 -6 -20 -7 8 -3 31 4 45 -9 20 -18 -8 -2 -9 -8 -4
-13 5 -5 10 -4 13 2 2 7 12 11 21 9 9 -1 11 0 5 2 -19 6 -16 21 5 26 9 2 4 4
-13 4 -16 0 -41 -4 -55 -9z"/>
<path d="M3345 2950 c-16 -7 -17 -9 -3 -9 9 -1 20 4 23 9 7 11 7 11 -20 0z"/>
<path d="M3358 2918 c-30 -17 -35 -23 -24 -32 8 -6 16 -20 19 -31 4 -19 5 -18
6 2 1 15 9 23 31 28 16 4 35 3 42 -1 7 -4 6 1 -3 11 -13 13 -21 15 -37 6 -11
-6 -29 -11 -39 -11 -12 0 -9 5 12 16 34 17 54 34 40 33 -6 0 -27 -10 -47 -21z"/>
<path d="M2004 2902 c15 -3 16 -6 5 -13 -9 -6 -4 -7 16 -3 52 12 55 19 7 20
-26 0 -38 -2 -28 -4z"/>
<path d="M2496 2882 c-5 -18 -5 -36 -2 -39 7 -7 19 43 13 59 -2 7 -7 -2 -11
-20z"/>
<path d="M2530 2868 c0 -37 4 -48 15 -48 13 0 14 4 5 21 -7 11 -9 26 -7 33 3
7 1 19 -4 27 -6 9 -9 -2 -9 -33z"/>
<path d="M3228 2903 c7 -3 16 -2 19 1 4 3 -2 6 -13 5 -11 0 -14 -3 -6 -6z"/>
<path d="M1958 2893 c7 -3 16 -2 19 1 4 3 -2 6 -13 5 -11 0 -14 -3 -6 -6z"/>
<path d="M3055 2870 c11 -5 30 -9 43 -9 12 -1 22 -5 22 -11 0 -5 16 -2 36 7
19 10 31 19 24 21 -6 2 -17 -1 -25 -8 -10 -8 -24 -8 -52 -1 -46 13 -77 14 -48
1z"/>
<path d="M3298 2866 c-24 -18 -23 -25 2 -19 11 3 20 12 20 19 0 17 0 17 -22 0z"/>
<path d="M3622 2860 c11 -17 10 -22 -2 -30 -8 -5 -12 -11 -9 -15 3 -3 14 4 24
15 19 21 14 50 -10 50 -13 0 -13 -3 -3 -20z"/>
<path d="M1891 2819 c-23 -19 -23 -19 -2 -19 12 0 24 7 28 15 9 24 0 25 -26 4z"/>
<path d="M3065 2830 c-3 -5 1 -10 9 -10 8 0 18 5 21 10 3 6 -1 10 -9 10 -8 0
-18 -4 -21 -10z"/>
<path d="M3314 2825 c-10 -8 -14 -14 -9 -15 15 0 40 18 34 24 -3 3 -14 -1 -25
-9z"/>
<path d="M3225 2820 c-3 -5 -1 -10 4 -10 6 0 11 5 11 10 0 6 -2 10 -4 10 -3 0
-8 -4 -11 -10z"/>
<path d="M1708 2813 c7 -3 16 -2 19 1 4 3 -2 6 -13 5 -11 0 -14 -3 -6 -6z"/>
<path d="M3260 2810 c-9 -6 -10 -10 -3 -10 6 0 15 5 18 10 8 12 4 12 -15 0z"/>
<path d="M2630 2793 c0 -16 37 -59 45 -52 3 4 -5 19 -19 34 -15 16 -26 23 -26
18z"/>
<path d="M2685 2790 c3 -5 8 -10 11 -10 2 0 4 5 4 10 0 6 -5 10 -11 10 -5 0
-7 -4 -4 -10z"/>
<path d="M1580 2780 c0 -5 -8 -10 -17 -11 -14 0 -15 -2 -3 -6 8 -3 18 -11 22
-17 4 -6 10 -7 15 -3 4 5 1 12 -7 17 -10 7 -11 10 -2 10 6 0 12 5 12 10 0 6
-4 10 -10 10 -5 0 -10 -4 -10 -10z"/>
<path d="M2988 2783 c7 -3 16 -2 19 1 4 3 -2 6 -13 5 -11 0 -14 -3 -6 -6z"/>
<path d="M3577 2783 c-13 -13 -7 -21 13 -16 11 3 20 9 20 14 0 10 -24 12 -33
2z"/>
<path d="M2712 2755 c0 -16 2 -22 5 -12 2 9 2 23 0 30 -3 6 -5 -1 -5 -18z"/>
<path d="M2950 2770 c-13 -8 -12 -10 3 -10 9 0 17 5 17 10 0 12 -1 12 -20 0z"/>
<path d="M2891 2754 c13 -16 29 -19 29 -5 0 5 -9 11 -21 14 -16 4 -18 3 -8 -9z"/>
<path d="M3145 2760 c-3 -5 -2 -10 4 -10 5 0 13 5 16 10 3 6 2 10 -4 10 -5 0
-13 -4 -16 -10z"/>
<path d="M1504 2745 c-10 -8 -14 -15 -7 -15 6 0 15 5 18 10 4 7 12 7 25 0 28
-15 37 -12 14 5 -24 18 -26 18 -50 0z"/>
<path d="M3170 2735 c-17 -10 -20 -14 -9 -15 9 0 22 7 29 15 15 18 12 18 -20
0z"/>
<path d="M3537 2736 c-6 -14 0 -26 13 -26 3 0 6 9 6 20 0 23 -11 27 -19 6z"/>
<path d="M2660 2720 c-9 -6 -10 -10 -3 -10 6 0 15 5 18 10 8 12 4 12 -15 0z"/>
<path d="M3075 2720 c-3 -5 -22 -17 -41 -26 -19 -9 -33 -18 -32 -20 8 -7 78
22 78 33 0 6 6 14 13 16 9 4 9 6 0 6 -6 1 -15 -3 -18 -9z"/>
<path d="M2788 2713 c7 -3 16 -2 19 1 4 3 -2 6 -13 5 -11 0 -14 -3 -6 -6z"/>
<path d="M2726 2694 c-3 -8 -10 -13 -15 -10 -10 6 -23 -33 -15 -46 3 -4 11 -8
17 -8 8 0 8 3 -2 9 -10 7 -10 12 5 30 10 11 24 21 31 21 7 0 13 5 13 10 0 16
-27 12 -34 -6z"/>
<path d="M2828 2703 c7 -3 16 -2 19 1 4 3 -2 6 -13 5 -11 0 -14 -3 -6 -6z"/>
<path d="M2671 2684 c0 -11 3 -14 6 -6 3 7 2 16 -1 19 -3 4 -6 -2 -5 -13z"/>
<path d="M3520 2689 c0 -5 5 -7 10 -4 6 3 10 8 10 11 0 2 -4 4 -10 4 -5 0 -10
-5 -10 -11z"/>
<path d="M1406 2681 c-4 -6 0 -11 8 -11 9 0 16 -4 16 -10 0 -13 -37 -13 -42 0
-2 7 -10 6 -21 -2 -15 -11 -12 -13 23 -15 44 -3 60 11 37 34 -10 10 -17 11
-21 4z"/>
<path d="M2760 2675 c-16 -19 -1 -19 24 0 16 12 17 15 4 15 -8 0 -21 -7 -28
-15z"/>
<path d="M3061 2666 c-17 -10 -20 -15 -10 -18 17 -6 49 9 49 22 0 13 -10 12
-39 -4z"/>
<path d="M2945 2650 c-11 -5 -14 -9 -7 -9 18 -1 15 -26 -8 -46 -11 -10 -28
-15 -40 -12 -11 3 -20 1 -20 -4 0 -16 46 -10 68 10 12 10 22 28 22 39 0 11 6
23 13 25 6 3 8 5 2 6 -5 0 -19 -4 -30 -9z"/>
<path d="M2000 2630 c0 -5 5 -10 11 -10 5 0 7 5 4 10 -3 6 -8 10 -11 10 -2 0
-4 -4 -4 -10z"/>
<path d="M2095 2630 l-50 -7 45 -1 c25 -1 52 3 60 8 8 5 11 9 5 8 -5 -1 -32
-4 -60 -8z"/>
<path d="M2178 2633 c6 -2 18 -2 25 0 6 3 1 5 -13 5 -14 0 -19 -2 -12 -5z"/>
<path d="M2237 2633 c-6 -10 111 -9 120 0 3 4 -21 7 -55 7 -33 0 -63 -3 -65
-7z"/>
<path d="M2448 2633 c6 -2 18 -2 25 0 6 3 1 5 -13 5 -14 0 -19 -2 -12 -5z"/>
<path d="M2590 2625 c0 -8 4 -15 10 -15 5 0 7 7 4 15 -4 8 -8 15 -10 15 -2 0
-4 -7 -4 -15z"/>
<path d="M2896 2624 c-17 -12 -17 -14 -4 -14 9 0 20 5 23 11 11 17 2 18 -19 3z"/>
<path d="M1330 2605 c13 -14 26 -23 28 -20 7 7 -29 45 -41 45 -6 0 0 -11 13
-25z"/>
<path d="M2490 2626 c0 -2 18 -6 40 -8 22 -2 40 0 40 4 0 5 -18 8 -40 8 -22 0
-40 -2 -40 -4z"/>
<path d="M2035 2593 c11 -3 23 -10 27 -16 3 -6 28 -11 55 -13 l48 -2 -55 19
c-30 10 -64 18 -75 17 l-20 0 20 -5z"/>
<path d="M2820 2585 c-7 -8 -8 -15 -2 -15 5 0 15 7 22 15 7 8 8 15 2 15 -5 0
-15 -7 -22 -15z"/>
<path d="M2010 2570 c8 -5 22 -10 30 -10 13 0 13 1 0 10 -8 5 -22 10 -30 10
-13 0 -13 -1 0 -10z"/>
<path d="M1490 2546 c0 -9 5 -16 10 -16 6 0 10 4 10 9 0 6 -4 13 -10 16 -5 3
-10 -1 -10 -9z"/>
<path d="M2765 2550 c3 -5 11 -10 16 -10 6 0 7 5 4 10 -3 6 -11 10 -16 10 -6
0 -7 -4 -4 -10z"/>
<path d="M2818 2553 c7 -3 16 -2 19 1 4 3 -2 6 -13 5 -11 0 -14 -3 -6 -6z"/>
<path d="M3369 2558 c-1 -2 -2 -18 -4 -36 -3 -32 -2 -33 17 -15 17 16 18 18 4
21 -19 4 -21 18 -3 25 10 4 10 6 0 6 -7 1 -13 0 -14 -1z"/>
<path d="M2260 2543 c14 -3 29 -9 35 -14 14 -14 25 -11 25 6 0 11 -11 15 -42
14 -28 -1 -34 -3 -18 -6z"/>
<path d="M2820 2531 c8 -5 26 -12 40 -15 l25 -7 -25 15 c-14 9 -32 15 -40 15
-13 0 -13 -1 0 -8z"/>
<path d="M2905 2530 c3 -5 15 -10 25 -10 10 0 21 -8 23 -17 4 -14 5 -13 6 3 1
21 -16 34 -45 34 -9 0 -12 -4 -9 -10z"/>
<path d="M2368 2523 c12 -2 32 -2 45 0 12 2 2 4 -23 4 -25 0 -35 -2 -22 -4z"/>
<path d="M2248 2513 c7 -3 16 -2 19 1 4 3 -2 6 -13 5 -11 0 -14 -3 -6 -6z"/>
<path d="M2448 2513 c6 -2 18 -2 25 0 6 3 1 5 -13 5 -14 0 -19 -2 -12 -5z"/>
<path d="M2285 2500 l-40 -7 35 -1 c19 -1 42 3 50 8 16 11 14 11 -45 0z"/>
<path d="M2508 2503 c6 -2 18 -2 25 0 6 3 1 5 -13 5 -14 0 -19 -2 -12 -5z"/>
<path d="M2556 2493 c-6 -14 -5 -15 5 -6 7 7 10 15 7 18 -3 3 -9 -2 -12 -12z"/>
<path d="M2900 2500 c8 -5 22 -9 30 -9 10 0 8 3 -5 9 -27 12 -43 12 -25 0z"/>
<path d="M2378 2493 c7 -3 16 -2 19 1 4 3 -2 6 -13 5 -11 0 -14 -3 -6 -6z"/>
<path d="M2581 2474 c-14 -31 -14 -57 -1 -49 6 3 10 17 10 30 0 13 5 25 12 27
8 3 9 6 1 11 -5 3 -15 -5 -22 -19z"/>
<path d="M2960 2461 c0 -9 30 -24 36 -18 2 1 -6 8 -16 15 -11 7 -20 8 -20 3z"/>
<path d="M3019 2456 c13 -15 13 -19 0 -28 -12 -8 -12 -9 1 -5 8 2 15 12 15 22
0 10 -7 21 -15 23 -13 5 -13 3 -1 -12z"/>
<path d="M2710 2450 c0 -5 7 -7 15 -4 8 4 15 8 15 10 0 2 -7 4 -15 4 -8 0 -15
-4 -15 -10z"/>
<path d="M3366 2444 c-9 -23 -7 -44 4 -44 5 0 6 8 3 17 -5 12 -2 15 10 10 9
-3 17 -5 17 -3 0 12 -13 36 -20 36 -4 0 -11 -7 -14 -16z"/>
<path d="M1550 2442 c8 -3 18 -9 21 -15 4 -5 12 -6 18 -3 20 13 11 23 -21 23
-18 1 -26 -2 -18 -5z"/>
<path d="M2679 2385 c-12 -25 -19 -48 -16 -52 4 -3 9 2 13 11 6 15 8 14 25 -5
23 -26 25 -15 4 24 -11 21 -12 34 -5 48 6 10 8 19 5 19 -3 0 -14 -20 -26 -45z"/>
<path d="M2797 2423 c-3 -5 2 -9 11 -9 9 -1 26 -5 37 -9 14 -5 17 -5 10 2 -14
15 -52 25 -58 16z"/>
<path d="M1650 2390 c-13 -9 -13 -11 0 -20 8 -5 20 -10 25 -10 6 0 3 5 -5 10
-13 9 -13 11 0 20 8 5 11 10 5 10 -5 0 -17 -5 -25 -10z"/>
<path d="M1740 2390 c0 -5 5 -10 10 -10 6 0 10 5 10 10 0 6 -4 10 -10 10 -5 0
-10 -4 -10 -10z"/>
<path d="M2903 2375 c15 -14 35 -25 44 -25 9 0 13 -6 9 -15 -6 -16 9 -21 19
-6 3 6 -15 24 -39 40 -53 37 -72 40 -33 6z"/>
<path d="M3065 2390 c-8 -13 5 -13 25 0 13 8 13 10 -2 10 -9 0 -20 -4 -23 -10z"/>
<path d="M3102 2374 c-7 -8 -8 -14 -3 -14 10 0 25 19 20 25 -2 1 -10 -3 -17
-11z"/>
<path d="M3180 2370 c0 -5 5 -10 10 -10 6 0 10 5 10 10 0 6 -4 10 -10 10 -5 0
-10 -4 -10 -10z"/>
<path d="M3440 2372 c0 -8 7 -28 16 -45 9 -18 20 -38 23 -46 4 -8 17 -21 29
-29 20 -13 22 -13 16 2 -3 9 -12 16 -19 16 -7 0 -16 12 -19 28 -7 31 -46 94
-46 74z"/>
<path d="M2880 2359 c0 -25 28 -45 42 -31 9 9 8 12 -5 12 -9 0 -21 8 -26 18
-9 15 -10 15 -11 1z"/>
<path d="M2635 2319 c-4 -6 -5 -12 -2 -15 2 -3 7 2 10 11 7 17 1 20 -8 4z"/>
<path d="M3150 2320 c-9 -6 -10 -10 -3 -10 6 0 15 5 18 10 8 12 4 12 -15 0z"/>
<path d="M1858 2313 c7 -3 16 -2 19 1 4 3 -2 6 -13 5 -11 0 -14 -3 -6 -6z"/>
<path d="M2495 2299 c-6 -19 0 -38 9 -28 10 12 16 49 7 49 -5 0 -13 -9 -16
-21z"/>
<path d="M3170 2301 c0 -5 7 -12 16 -15 14 -5 15 -4 4 9 -14 17 -20 19 -20 6z"/>
<path d="M3233 2290 c47 -25 59 -25 28 0 -13 11 -33 20 -44 20 -17 0 -13 -5
16 -20z"/>
<path d="M1797 2289 c7 -7 28 -13 48 -14 44 -1 32 10 -20 20 -32 5 -38 4 -28
-6z"/>
<path d="M2518 2270 c-6 -41 8 -59 16 -20 8 43 8 50 -3 50 -5 0 -11 -13 -13
-30z"/>
<path d="M3067 2276 c15 -13 30 -22 33 -19 5 5 -41 42 -53 43 -4 0 5 -11 20
-24z"/>
<path d="M2621 2274 c0 -11 3 -14 6 -6 3 7 2 16 -1 19 -3 4 -6 -2 -5 -13z"/>
<path d="M3440 2271 c0 -12 7 -24 15 -28 24 -9 25 0 4 26 -19 23 -19 23 -19 2z"/>
<path d="M3040 2260 c0 -5 5 -10 11 -10 5 0 7 5 4 10 -3 6 -8 10 -11 10 -2 0
-4 -4 -4 -10z"/>
<path d="M3210 2266 c0 -2 7 -9 15 -16 12 -10 15 -10 15 4 0 9 -7 16 -15 16
-8 0 -15 -2 -15 -4z"/>
<path d="M2603 2219 c-7 -17 -7 -31 -2 -35 5 -3 9 3 9 13 0 11 5 24 11 30 6 6
7 13 2 16 -5 3 -14 -7 -20 -24z"/>
<path d="M3146 2222 c17 -16 38 -32 45 -35 12 -5 11 -7 -1 -16 -9 -6 -10 -11
-3 -11 6 0 14 -10 16 -22 3 -15 5 -11 6 12 1 37 -11 53 -66 86 -28 16 -28 16
3 -14z"/>
<path d="M1965 2230 c-14 -7 -9 -8 20 -5 27 4 34 2 21 -3 -12 -5 -16 -11 -9
-15 6 -4 23 -1 37 7 l27 13 -23 7 c-30 8 -49 7 -73 -4z"/>
<path d="M3310 2228 c0 -9 5 -20 11 -23 17 -11 18 -2 3 19 -12 17 -14 17 -14
4z"/>
<path d="M2491 2213 c0 -4 4 -17 9 -28 8 -19 9 -19 9 2 1 12 -3 25 -9 28 -5 3
-10 3 -9 -2z"/>
<path d="M2632 2200 c0 -14 2 -19 5 -12 2 6 2 18 0 25 -3 6 -5 1 -5 -13z"/>
<path d="M3270 2215 c0 -11 63 -85 72 -85 3 0 9 7 12 16 3 9 2 12 -5 9 -5 -4
-26 10 -44 32 -19 21 -34 34 -35 28z"/>
<path d="M3120 2202 c0 -10 22 -32 32 -32 15 0 8 15 -12 28 -11 7 -20 9 -20 4z"/>
<path d="M2040 2193 c8 -3 21 -10 28 -16 8 -7 12 -5 12 7 0 11 -8 16 -27 15
-16 0 -22 -3 -13 -6z"/>
<path d="M3521 2190 c0 -8 5 -23 12 -32 12 -15 14 -15 25 3 17 26 15 37 -2 13
-14 -18 -15 -18 -25 6 -5 14 -10 18 -10 10z"/>
<path d="M2484 2123 c-1 -29 2 -40 7 -32 11 17 12 66 2 72 -5 3 -9 -15 -9 -40z"/>
<path d="M2575 2132 c-4 -24 -5 -46 -2 -49 8 -7 20 63 14 79 -2 7 -7 -6 -12
-30z"/>
<path d="M2626 2157 c3 -10 9 -15 12 -12 3 3 0 11 -7 18 -10 9 -11 8 -5 -6z"/>
<path d="M3237 2152 c2 -10 19 -24 36 -32 18 -7 38 -20 45 -27 7 -7 18 -13 24
-13 6 0 -7 13 -28 29 -22 17 -47 37 -56 45 -23 21 -27 20 -21 -2z"/>
<path d="M2140 2149 c0 -5 5 -7 10 -4 6 3 10 8 10 11 0 2 -4 4 -10 4 -5 0 -10
-5 -10 -11z"/>
<path d="M2112 2130 c0 -14 2 -19 5 -12 2 6 2 18 0 25 -3 6 -5 1 -5 -13z"/>
<path d="M3355 2129 c-10 -15 1 -23 20 -15 9 3 13 10 10 16 -8 13 -22 13 -30
-1z"/>
<path d="M3425 2131 c-3 -5 -1 -12 5 -16 5 -3 10 1 10 9 0 18 -6 21 -15 7z"/>
<path d="M2602 2105 c0 -16 2 -22 5 -12 2 9 2 23 0 30 -3 6 -5 -1 -5 -18z"/>
<path d="M2142 2100 c0 -14 2 -19 5 -12 2 6 2 18 0 25 -3 6 -5 1 -5 -13z"/>
<path d="M3220 2111 c0 -10 30 -24 37 -17 3 2 -5 9 -16 16 -12 6 -21 7 -21 1z"/>
<path d="M3560 2110 c0 -5 5 -10 10 -10 6 0 10 5 10 10 0 6 -4 10 -10 10 -5 0
-10 -4 -10 -10z"/>
<path d="M3396 2095 c-3 -9 0 -15 9 -15 16 0 20 16 6 24 -5 3 -11 -1 -15 -9z"/>
<path d="M3603 2050 c0 -23 3 -28 9 -16 5 9 5 23 0 32 -6 12 -9 7 -9 -16z"/>
<path d="M2481 2044 c0 -11 3 -14 6 -6 3 7 2 16 -1 19 -3 4 -6 -2 -5 -13z"/>
<path d="M2542 2010 c0 -19 2 -27 5 -17 2 9 2 25 0 35 -3 9 -5 1 -5 -18z"/>
<path d="M3623 2004 c0 -17 2 -22 7 -13 5 6 6 18 3 26 -8 19 -10 16 -10 -13z"/>
<path d="M2402 1980 c0 -14 2 -19 5 -12 2 6 2 18 0 25 -3 6 -5 1 -5 -13z"/>
<path d="M2432 1980 c0 -14 2 -19 5 -12 2 6 2 18 0 25 -3 6 -5 1 -5 -13z"/>
<path d="M3600 1964 c0 -10 5 -26 10 -34 8 -11 9 -7 4 15 -8 37 -14 45 -14 19z"/>
<path d="M2521 1954 c0 -11 3 -14 6 -6 3 7 2 16 -1 19 -3 4 -6 -2 -5 -13z"/>
<path d="M3630 1953 c0 -4 5 -15 10 -23 8 -13 10 -13 10 2 0 9 -4 20 -10 23
-5 3 -10 3 -10 -2z"/>
<path d="M2447 1926 c-4 -10 -7 -30 -6 -44 1 -25 1 -25 10 6 11 37 7 67 -4 38z"/>
<path d="M2510 1909 c0 -11 -5 -29 -10 -40 -8 -15 -7 -23 5 -35 8 -8 15 -20
15 -26 0 -6 9 -3 20 7 11 10 17 21 12 24 -5 3 -12 13 -15 21 -4 12 -6 11 -6
-2 -1 -10 -6 -18 -12 -18 -7 0 -8 16 -3 45 3 25 4 45 0 45 -3 0 -6 -9 -6 -21z"/>
<path d="M2537 1909 c4 -13 8 -18 11 -10 2 7 -1 18 -6 23 -8 8 -9 4 -5 -13z"/>
<path d="M2400 1913 c0 -5 5 -15 10 -23 8 -12 10 -11 10 8 0 12 -4 22 -10 22
-5 0 -10 -3 -10 -7z"/>
<path d="M2072 1865 c0 -16 2 -22 5 -12 2 9 2 23 0 30 -3 6 -5 -1 -5 -18z"/>
<path d="M2416 1794 c-18 -54 -22 -100 -6 -73 11 20 32 110 26 116 -2 2 -11
-17 -20 -43z"/>
<path d="M2950 1830 c8 -5 20 -10 25 -10 6 0 3 5 -5 10 -8 5 -19 10 -25 10 -5
0 -3 -5 5 -10z"/>
<path d="M3032 1827 c21 -5 49 -5 63 0 20 6 11 8 -37 9 -58 0 -60 0 -26 -9z"/>
<path d="M3000 1810 c0 -5 7 -10 16 -10 8 0 12 5 9 10 -3 6 -10 10 -16 10 -5
0 -9 -4 -9 -10z"/>
<path d="M3105 1810 c-3 -5 -1 -10 4 -10 6 0 11 5 11 10 0 6 -2 10 -4 10 -3 0
-8 -4 -11 -10z"/>
<path d="M3050 1793 c8 -3 23 -12 33 -21 9 -8 20 -12 25 -8 10 11 -28 36 -52
35 -15 0 -17 -2 -6 -6z"/>
<path d="M2720 1779 c0 -5 5 -7 10 -4 6 3 10 8 10 11 0 2 -4 4 -10 4 -5 0 -10
-5 -10 -11z"/>
<path d="M2462 1755 c-7 -14 -12 -31 -12 -38 1 -7 7 3 16 22 17 39 13 54 -4
16z"/>
<path d="M2540 1770 c0 -5 5 -10 10 -10 6 0 10 5 10 10 0 6 -4 10 -10 10 -5 0
-10 -4 -10 -10z"/>
<path d="M3685 1759 c-4 -6 -5 -12 -2 -15 2 -3 7 2 10 11 7 17 1 20 -8 4z"/>
<path d="M3244 1745 c-7 -18 3 -35 22 -35 17 0 19 16 2 24 -7 3 3 3 22 0 l35
-5 -29 15 c-35 20 -45 20 -52 1z"/>
<path d="M2727 1733 c-4 -3 -7 -11 -7 -17 0 -6 5 -5 12 2 6 6 9 14 7 17 -3 3
-9 2 -12 -2z"/>
<path d="M2435 1690 c-3 -5 -1 -10 4 -10 6 0 11 5 11 10 0 6 -2 10 -4 10 -3 0
-8 -4 -11 -10z"/>
<path d="M2641 1663 c-1 -12 4 -25 9 -28 12 -7 12 2 0 30 -8 19 -9 19 -9 -2z"/>
<path d="M2670 1665 c0 -8 2 -15 4 -15 2 0 6 7 10 15 3 8 1 15 -4 15 -6 0 -10
-7 -10 -15z"/>
<path d="M3515 1670 c-3 -6 1 -7 9 -4 18 7 21 14 7 14 -6 0 -13 -4 -16 -10z"/>
<path d="M3575 1670 c-27 -7 -27 -8 -5 -8 14 0 36 4 50 8 20 6 21 8 5 8 -11 0
-33 -4 -50 -8z"/>
<path d="M2100 1588 c0 -9 5 -20 10 -23 13 -8 13 5 0 25 -8 13 -10 13 -10 -2z"/>
<path d="M2152 1550 c0 -14 2 -19 5 -12 2 6 2 18 0 25 -3 6 -5 1 -5 -13z"/>
<path d="M2132 1540 c0 -14 2 -19 5 -12 2 6 2 18 0 25 -3 6 -5 1 -5 -13z"/>
<path d="M2480 1510 c0 -5 7 -7 15 -4 8 4 15 8 15 10 0 2 -7 4 -15 4 -8 0 -15
-4 -15 -10z"/>
<path d="M2151 1484 c0 -11 3 -14 6 -6 3 7 2 16 -1 19 -3 4 -6 -2 -5 -13z"/>
<path d="M2496 1491 c-4 -5 -2 -12 3 -15 5 -4 12 -2 15 3 4 5 2 12 -3 15 -5 4
-12 2 -15 -3z"/>
<path d="M2126 1433 c10 -40 14 -41 14 -5 0 18 -5 32 -10 32 -6 0 -8 -11 -4
-27z"/>
<path d="M2320 1430 c0 -13 18 -22 24 -11 3 5 -1 11 -9 15 -8 3 -15 1 -15 -4z"/>
<path d="M2145 1389 c-4 -17 -3 -35 2 -40 5 -5 9 9 9 31 2 48 -2 51 -11 9z"/>
<path d="M2240 1390 c0 -5 5 -10 10 -10 6 0 10 5 10 10 0 6 -4 10 -10 10 -5 0
-10 -4 -10 -10z"/>
<path d="M2358 1388 c9 -9 15 -9 24 0 9 9 7 12 -12 12 -19 0 -21 -3 -12 -12z"/>
<path d="M2322 1355 c-17 -19 -1 -19 24 0 14 11 15 14 4 14 -8 0 -21 -6 -28
-14z"/>
</g>
</svg>
